<mxfile host="Electron" agent="Mozilla/5.0 (Windows NT 10.0; Win64; x64) AppleWebKit/537.36 (KHTML, like Gecko) draw.io/26.0.9 Chrome/128.0.6613.186 Electron/32.2.5 Safari/537.36" version="26.0.9">
  <diagram name="Page-1" id="c4acf3e9-155e-7222-9cf6-157b1a14988f">
    <mxGraphModel dx="627" dy="565" grid="1" gridSize="10" guides="1" tooltips="1" connect="1" arrows="1" fold="1" page="1" pageScale="1" pageWidth="850" pageHeight="1100" background="none" math="0" shadow="0">
      <root>
        <mxCell id="0" />
        <mxCell id="1" parent="0" />
        <mxCell id="17acba5748e5396b-1" value="System rozliczania pracownika" style="shape=umlFrame;whiteSpace=wrap;html=1;rounded=0;shadow=0;comic=0;labelBackgroundColor=none;strokeWidth=1;fontFamily=Verdana;fontSize=10;align=center;width=170;height=30;" parent="1" vertex="1">
          <mxGeometry x="80" y="40" width="690" height="640" as="geometry" />
        </mxCell>
        <mxCell id="QQ5KWBCE0LgN9xvqeI5i-3" value="Pracownik" style="shape=umlActor;verticalLabelPosition=bottom;verticalAlign=top;html=1;" parent="1" vertex="1">
          <mxGeometry x="800" y="220" width="30" height="60" as="geometry" />
        </mxCell>
        <mxCell id="QQ5KWBCE0LgN9xvqeI5i-4" value="Księgowa" style="shape=umlActor;verticalLabelPosition=bottom;verticalAlign=top;html=1;" parent="1" vertex="1">
          <mxGeometry x="20" y="220" width="30" height="60" as="geometry" />
        </mxCell>
        <mxCell id="QQ5KWBCE0LgN9xvqeI5i-22" value="Wyświetl miesięczny raport czasu pracy pracowników" style="ellipse;whiteSpace=wrap;html=1;" parent="1" vertex="1">
          <mxGeometry x="345" y="210" width="130" height="80" as="geometry" />
        </mxCell>
        <mxCell id="QQ5KWBCE0LgN9xvqeI5i-49" value="" style="endArrow=none;html=1;rounded=0;entryX=0.5;entryY=0.5;entryDx=0;entryDy=0;entryPerimeter=0;exitX=0;exitY=0.5;exitDx=0;exitDy=0;" parent="1" source="QQ5KWBCE0LgN9xvqeI5i-22" target="QQ5KWBCE0LgN9xvqeI5i-4" edge="1">
          <mxGeometry width="50" height="50" relative="1" as="geometry">
            <mxPoint x="280" y="310" as="sourcePoint" />
            <mxPoint x="45" y="310" as="targetPoint" />
          </mxGeometry>
        </mxCell>
        <mxCell id="QQ5KWBCE0LgN9xvqeI5i-55" value="" style="endArrow=block;dashed=1;endFill=0;endSize=12;html=1;rounded=0;exitX=0.5;exitY=0;exitDx=0;exitDy=0;" parent="1" edge="1">
          <mxGeometry width="160" relative="1" as="geometry">
            <mxPoint x="330" y="260" as="sourcePoint" />
            <mxPoint x="330" y="260" as="targetPoint" />
          </mxGeometry>
        </mxCell>
        <mxCell id="QQ5KWBCE0LgN9xvqeI5i-60" value="" style="endArrow=none;html=1;rounded=0;entryX=1;entryY=0.5;entryDx=0;entryDy=0;exitX=0.5;exitY=0.5;exitDx=0;exitDy=0;exitPerimeter=0;" parent="1" source="QQ5KWBCE0LgN9xvqeI5i-3" target="QQ5KWBCE0LgN9xvqeI5i-66" edge="1">
          <mxGeometry width="50" height="50" relative="1" as="geometry">
            <mxPoint x="660" y="119.58000000000001" as="sourcePoint" />
            <mxPoint x="320" y="130" as="targetPoint" />
          </mxGeometry>
        </mxCell>
        <mxCell id="QQ5KWBCE0LgN9xvqeI5i-65" value="Oblicz podstawowe wynagrodzenie pracownika" style="ellipse;whiteSpace=wrap;html=1;" parent="1" vertex="1">
          <mxGeometry x="470" y="320" width="120" height="80" as="geometry" />
        </mxCell>
        <mxCell id="QQ5KWBCE0LgN9xvqeI5i-66" value="Zarejestruj swój czas pracy" style="ellipse;whiteSpace=wrap;html=1;" parent="1" vertex="1">
          <mxGeometry x="350" y="60" width="120" height="80" as="geometry" />
        </mxCell>
        <mxCell id="QQ5KWBCE0LgN9xvqeI5i-68" value="" style="endArrow=none;html=1;rounded=0;entryX=0.5;entryY=0.5;entryDx=0;entryDy=0;entryPerimeter=0;exitX=0;exitY=0.5;exitDx=0;exitDy=0;" parent="1" source="QQ5KWBCE0LgN9xvqeI5i-66" target="QQ5KWBCE0LgN9xvqeI5i-4" edge="1">
          <mxGeometry width="50" height="50" relative="1" as="geometry">
            <mxPoint x="335" y="280" as="sourcePoint" />
            <mxPoint x="50" y="280" as="targetPoint" />
          </mxGeometry>
        </mxCell>
        <mxCell id="QQ5KWBCE0LgN9xvqeI5i-72" value="Rozlicz pracownika" style="ellipse;whiteSpace=wrap;html=1;" parent="1" vertex="1">
          <mxGeometry x="470" y="570" width="120" height="80" as="geometry" />
        </mxCell>
        <mxCell id="QQ5KWBCE0LgN9xvqeI5i-73" value="Zadecyduj o premii" style="ellipse;whiteSpace=wrap;html=1;" parent="1" vertex="1">
          <mxGeometry x="350" y="440" width="120" height="80" as="geometry" />
        </mxCell>
        <mxCell id="QQ5KWBCE0LgN9xvqeI5i-74" value="" style="endArrow=none;html=1;rounded=0;entryX=1;entryY=0.5;entryDx=0;entryDy=0;exitX=0.5;exitY=0.5;exitDx=0;exitDy=0;exitPerimeter=0;" parent="1" source="QQ5KWBCE0LgN9xvqeI5i-3" target="QQ5KWBCE0LgN9xvqeI5i-72" edge="1">
          <mxGeometry width="50" height="50" relative="1" as="geometry">
            <mxPoint x="815" y="310" as="sourcePoint" />
            <mxPoint x="470" y="310" as="targetPoint" />
          </mxGeometry>
        </mxCell>
        <mxCell id="QQ5KWBCE0LgN9xvqeI5i-77" value="Podaj wielkość premii" style="ellipse;whiteSpace=wrap;html=1;" parent="1" vertex="1">
          <mxGeometry x="110" y="546" width="120" height="80" as="geometry" />
        </mxCell>
        <mxCell id="QQ5KWBCE0LgN9xvqeI5i-81" value="Podaj powód premii" style="ellipse;whiteSpace=wrap;html=1;" parent="1" vertex="1">
          <mxGeometry x="110" y="440" width="120" height="80" as="geometry" />
        </mxCell>
        <mxCell id="QQ5KWBCE0LgN9xvqeI5i-85" value="Podaj datę oraz ramy czasowe" style="ellipse;whiteSpace=wrap;html=1;" parent="1" vertex="1">
          <mxGeometry x="620" y="50" width="120" height="80" as="geometry" />
        </mxCell>
        <mxCell id="QQ5KWBCE0LgN9xvqeI5i-88" value="Zatwierdź miesięczny czas pracy" style="ellipse;whiteSpace=wrap;html=1;" parent="1" vertex="1">
          <mxGeometry x="220" y="320" width="120" height="80" as="geometry" />
        </mxCell>
        <mxCell id="QQ5KWBCE0LgN9xvqeI5i-111" value="" style="endArrow=none;html=1;rounded=0;entryX=0.5;entryY=0.5;entryDx=0;entryDy=0;entryPerimeter=0;exitX=0;exitY=0.5;exitDx=0;exitDy=0;" parent="1" source="QQ5KWBCE0LgN9xvqeI5i-88" target="QQ5KWBCE0LgN9xvqeI5i-4" edge="1">
          <mxGeometry width="50" height="50" relative="1" as="geometry">
            <mxPoint x="360" y="260" as="sourcePoint" />
            <mxPoint x="45" y="260" as="targetPoint" />
          </mxGeometry>
        </mxCell>
        <mxCell id="Ez4-qI9eSprWymzFdfLd-1" value="&amp;lt;&amp;lt;Include&amp;gt;&amp;gt;" style="endArrow=open;startArrow=none;endFill=0;startFill=0;endSize=8;html=1;verticalAlign=bottom;dashed=1;labelBackgroundColor=none;rounded=0;entryX=1;entryY=0.5;entryDx=0;entryDy=0;exitX=0;exitY=0.5;exitDx=0;exitDy=0;" parent="1" source="QQ5KWBCE0LgN9xvqeI5i-65" target="QQ5KWBCE0LgN9xvqeI5i-88" edge="1">
          <mxGeometry width="160" relative="1" as="geometry">
            <mxPoint x="330" y="320" as="sourcePoint" />
            <mxPoint x="490" y="320" as="targetPoint" />
          </mxGeometry>
        </mxCell>
        <mxCell id="Ez4-qI9eSprWymzFdfLd-2" value="&amp;lt;&amp;lt;Extend&amp;gt;&amp;gt;" style="endArrow=open;startArrow=none;endFill=0;startFill=0;endSize=8;html=1;verticalAlign=bottom;dashed=1;labelBackgroundColor=none;rounded=0;entryX=0;entryY=1;entryDx=0;entryDy=0;exitX=1;exitY=0;exitDx=0;exitDy=0;" parent="1" source="QQ5KWBCE0LgN9xvqeI5i-73" target="QQ5KWBCE0LgN9xvqeI5i-65" edge="1">
          <mxGeometry x="-0.401" y="26" width="160" relative="1" as="geometry">
            <mxPoint x="450" y="390" as="sourcePoint" />
            <mxPoint x="320" y="390" as="targetPoint" />
            <mxPoint as="offset" />
          </mxGeometry>
        </mxCell>
        <mxCell id="Ez4-qI9eSprWymzFdfLd-3" value="&amp;lt;&amp;lt;Include&amp;gt;&amp;gt;" style="endArrow=open;startArrow=none;endFill=0;startFill=0;endSize=8;html=1;verticalAlign=bottom;dashed=1;labelBackgroundColor=none;rounded=0;exitX=0.5;exitY=0;exitDx=0;exitDy=0;entryX=0.5;entryY=1;entryDx=0;entryDy=0;" parent="1" source="QQ5KWBCE0LgN9xvqeI5i-22" target="QQ5KWBCE0LgN9xvqeI5i-66" edge="1">
          <mxGeometry x="0.4286" y="40" width="160" relative="1" as="geometry">
            <mxPoint x="380" y="180" as="sourcePoint" />
            <mxPoint x="290" y="250" as="targetPoint" />
            <mxPoint as="offset" />
          </mxGeometry>
        </mxCell>
        <mxCell id="Ez4-qI9eSprWymzFdfLd-4" value="&amp;lt;&amp;lt;Include&amp;gt;&amp;gt;" style="endArrow=open;startArrow=none;endFill=0;startFill=0;endSize=8;html=1;verticalAlign=bottom;dashed=1;labelBackgroundColor=none;rounded=0;entryX=1;entryY=0.5;entryDx=0;entryDy=0;exitX=0;exitY=0.5;exitDx=0;exitDy=0;" parent="1" source="QQ5KWBCE0LgN9xvqeI5i-73" target="QQ5KWBCE0LgN9xvqeI5i-81" edge="1">
          <mxGeometry width="160" relative="1" as="geometry">
            <mxPoint x="360" y="450" as="sourcePoint" />
            <mxPoint x="230" y="450" as="targetPoint" />
          </mxGeometry>
        </mxCell>
        <mxCell id="Ez4-qI9eSprWymzFdfLd-5" value="&amp;lt;&amp;lt;Include&amp;gt;&amp;gt;" style="endArrow=open;startArrow=none;endFill=0;startFill=0;endSize=8;html=1;verticalAlign=bottom;dashed=1;labelBackgroundColor=none;rounded=0;entryX=1;entryY=0;entryDx=0;entryDy=0;exitX=0;exitY=1;exitDx=0;exitDy=0;" parent="1" source="QQ5KWBCE0LgN9xvqeI5i-73" target="QQ5KWBCE0LgN9xvqeI5i-77" edge="1">
          <mxGeometry x="0.4942" y="-5" width="160" relative="1" as="geometry">
            <mxPoint x="340" y="520" as="sourcePoint" />
            <mxPoint x="220" y="520" as="targetPoint" />
            <mxPoint as="offset" />
          </mxGeometry>
        </mxCell>
        <mxCell id="Ez4-qI9eSprWymzFdfLd-6" value="&amp;lt;&amp;lt;Include&amp;gt;&amp;gt;" style="endArrow=open;startArrow=none;endFill=0;startFill=0;endSize=8;html=1;verticalAlign=bottom;dashed=1;labelBackgroundColor=none;rounded=0;entryX=0.5;entryY=1;entryDx=0;entryDy=0;exitX=0.5;exitY=0;exitDx=0;exitDy=0;" parent="1" source="QQ5KWBCE0LgN9xvqeI5i-72" target="QQ5KWBCE0LgN9xvqeI5i-65" edge="1">
          <mxGeometry x="0.4118" y="-40" width="160" relative="1" as="geometry">
            <mxPoint x="406" y="546" as="sourcePoint" />
            <mxPoint x="250" y="596" as="targetPoint" />
            <mxPoint as="offset" />
          </mxGeometry>
        </mxCell>
        <mxCell id="Ez4-qI9eSprWymzFdfLd-7" value="&amp;lt;&amp;lt;Include&amp;gt;&amp;gt;" style="endArrow=open;startArrow=none;endFill=0;startFill=0;endSize=8;html=1;verticalAlign=bottom;dashed=1;labelBackgroundColor=none;rounded=0;entryX=0;entryY=0.5;entryDx=0;entryDy=0;exitX=0.972;exitY=0.41;exitDx=0;exitDy=0;exitPerimeter=0;" parent="1" source="QQ5KWBCE0LgN9xvqeI5i-66" target="QQ5KWBCE0LgN9xvqeI5i-85" edge="1">
          <mxGeometry x="-0.0619" y="5" width="160" relative="1" as="geometry">
            <mxPoint x="630" y="190" as="sourcePoint" />
            <mxPoint x="510" y="190" as="targetPoint" />
            <mxPoint as="offset" />
          </mxGeometry>
        </mxCell>
        <mxCell id="Ez4-qI9eSprWymzFdfLd-10" value="&amp;lt;&amp;lt;Include&amp;gt;&amp;gt;" style="endArrow=open;startArrow=none;endFill=0;startFill=0;endSize=8;html=1;verticalAlign=bottom;dashed=1;labelBackgroundColor=none;rounded=0;entryX=0;entryY=1;entryDx=0;entryDy=0;exitX=1;exitY=0;exitDx=0;exitDy=0;" parent="1" source="QQ5KWBCE0LgN9xvqeI5i-88" target="QQ5KWBCE0LgN9xvqeI5i-22" edge="1">
          <mxGeometry x="-0.7551" y="24" width="160" relative="1" as="geometry">
            <mxPoint x="470" y="330" as="sourcePoint" />
            <mxPoint x="340" y="330" as="targetPoint" />
            <mxPoint as="offset" />
          </mxGeometry>
        </mxCell>
      </root>
    </mxGraphModel>
  </diagram>
</mxfile>
